<svg height="512" viewBox="0 0 64 64" width="512" xmlns="http://www.w3.org/2000/svg"><g id="Coding"><path d="m37 28h3v2h-3z"/><path d="m53 18h-42v4h42zm-39 3h-1a1 1 0 0 1 0-2h1a1 1 0 0 1 0 2zm4 0h-1a1 1 0 0 1 0-2h1a1 1 0 0 1 0 2zm4 0h-1a1 1 0 0 1 0-2h1a1 1 0 0 1 0 2z"/><path d="m46 28h3v2h-3z"/><path d="m37 35h12v2h-12z"/><path d="m33 48h20v-24h-20zm18-3a1 1 0 0 1 -1 1h-5a1 1 0 0 1 -1-1v-4a1 1 0 0 1 1-1h5a1 1 0 0 1 1 1zm-7-18a1 1 0 0 1 1-1h5a1 1 0 0 1 1 1v4a1 1 0 0 1 -1 1h-5a1 1 0 0 1 -1-1zm-9 0a1 1 0 0 1 1-1h5a1 1 0 0 1 1 1v4a1 1 0 0 1 -1 1h-5a1 1 0 0 1 -1-1zm0 7a1 1 0 0 1 1-1h14a1 1 0 0 1 1 1v4a1 1 0 0 1 -1 1h-14a1 1 0 0 1 -1-1zm0 7a1 1 0 0 1 1-1h5a1 1 0 0 1 1 1v4a1 1 0 0 1 -1 1h-5a1 1 0 0 1 -1-1z"/><path d="m37 42h3v2h-3z"/><path d="m7 52h50v-35a3 3 0 0 0 -3-3h-44a3 3 0 0 0 -3 3zm2-35a1 1 0 0 1 1-1h44a1 1 0 0 1 1 1v32a1 1 0 0 1 -1 1h-44a1 1 0 0 1 -1-1z"/><path d="m60 54h-21v1a3 3 0 0 1 -3 3h-8a3 3 0 0 1 -3-3v-1h-21v1a5.006 5.006 0 0 0 5 5h46a5.006 5.006 0 0 0 5-5z"/><path d="m28 56h8a1 1 0 0 0 1-1v-1h-10v1a1 1 0 0 0 1 1z"/><path d="m31 24h-20v24h20zm-8.707 2.707a1 1 0 0 1 1.414-1.414l2 2a1 1 0 0 1 0 1.414l-2 2a1 1 0 0 1 -1.414-1.414l1.293-1.293zm-5.188 2.846 2-4a1 1 0 0 1 1.79.894l-2 4a1 1 0 1 1 -1.79-.894zm-2.105 16.447h-1a1 1 0 0 1 0-2h1a1 1 0 0 1 0 2zm0-8h-1a1 1 0 0 1 0-2h1a1 1 0 0 1 0 2zm0-3h-1a1 1 0 0 1 0-2h1a1 1 0 0 1 0 2zm.707-5.707a1 1 0 1 1 -1.414 1.414l-2-2a1 1 0 0 1 0-1.414l2-2a1 1 0 0 1 1.414 1.414l-1.293 1.293zm12.293 16.707h-10a1 1 0 0 1 0-2h10a1 1 0 0 1 0 2zm-11-5a1 1 0 0 1 1-1h1a1 1 0 0 1 0 2h-1a1 1 0 0 1 -1-1zm5 0a1 1 0 0 1 1-1h3a1 1 0 0 1 0 2h-3a1 1 0 0 1 -1-1zm6-3h-10a1 1 0 0 1 0-2h10a1 1 0 0 1 0 2zm0-3h-10a1 1 0 0 1 0-2h10a1 1 0 0 1 0 2z"/><path d="m46 42h3v2h-3z"/></g></svg>