<svg height="512" viewBox="0 0 64 64" width="512" xmlns="http://www.w3.org/2000/svg">
    <g id="Creative">
        <path d="m19.274 34.9 2.826 2.826 2.373-2.373a1 1 0 0 1 1.241-.138 11.016 11.016 0 0 0 1.286.694v-3.456a9 9 0 1 1 10 0v3.456a11.016 11.016 0 0 0 1.286-.694 1 1 0 0 1 1.241.138l2.373 2.373 2.826-2.826-2.373-2.373a1 1 0 0 1 -.143-1.235 11.448 11.448 0 0 0 1.455-3.513 1 1 0 0 1 .975-.779h3.36v-4h-3.36a1 1 0 0 1 -.975-.779 11.448 11.448 0 0 0 -1.455-3.513 1 1 0 0 1 .143-1.235l2.373-2.373-2.826-2.826-2.373 2.373a1 1 0 0 1 -1.24.139 11.471 11.471 0 0 0 -3.515-1.462 1 1 0 0 1 -.772-.974v-3.35h-4v3.35a1 1 0 0 1 -.772.974 11.471 11.471 0 0 0 -3.515 1.462 1 1 0 0 1 -1.24-.139l-2.373-2.373-2.826 2.826 2.373 2.373a1 1 0 0 1 .139 1.24 11.471 11.471 0 0 0 -1.462 3.515 1 1 0 0 1 -.974.772h-3.35v4h3.35a1 1 0 0 1 .974.772 11.471 11.471 0 0 0 1.462 3.515 1 1 0 0 1 -.139 1.24z"/>
        <g class="sword">
            <path id="tip" d="m34.643 26.768-2.643-3.965-2.643 3.965 2.643 1.982z"/>
            <path id="guard" d="m23 52h18v4h-18z"/>
            <path id="handle" d="m37 58h-10v1a1 1 0 0 0 1 1h8a1 1 0 0 0 1-1z"/>
            <path id="right-blade" d="m35 29-2 1.5v19.5h2z"/>
            <path id="left-blade" d="m29 50h2v-19.5l-2-1.5z"/>
        </g>
        <g class="background">
            <path d="m52.89 22.822a21 21 0 1 0 -30.523 20.843 4.915 4.915 0 0 1 2.633 4.401v1.934h2v-11.937a13.285 13.285 0 0 1 -1.66-.749l-2.533 2.533a1 1 0 0 1 -1.414 0l-4.24-4.24a1 1 0 0 1 0-1.414l2.533-2.533a13.424 13.424 0 0 1 -1.105-2.66h-3.581a1 1 0 0 1 -1-1v-6a1 1 0 0 1 1-1h3.581a13.424 13.424 0 0 1 1.105-2.66l-2.533-2.533a1 1 0 0 1 0-1.414l4.24-4.24a1 1 0 0 1 1.414 0l2.533 2.533a13.424 13.424 0 0 1 2.66-1.105v-3.581a1 1 0 0 1 1-1h6a1 1 0 0 1 1 1v3.581a13.424 13.424 0 0 1 2.66 1.105l2.533-2.533a1 1 0 0 1 1.414 0l4.24 4.24a1 1 0 0 1 0 1.414l-2.535 2.536a13.545 13.545 0 0 1 1.102 2.657h3.586a1 1 0 0 1 1 1v6a1 1 0 0 1 -1 1h-3.586a13.484 13.484 0 0 1 -1.1 2.657l2.535 2.536a1 1 0 0 1 0 1.414l-4.24 4.24a1 1 0 0 1 -1.414 0l-2.535-2.533a13.285 13.285 0 0 1 -1.66.749v11.937h2v-1.932a4.9 4.9 0 0 1 2.618-4.4 20.961 20.961 0 0 0 11.272-20.846z"/>
            <path d="m37 27v2.889a7 7 0 1 0 -10 0v-2.889a1.006 1.006 0 0 1 .168-.555l4-6a1.039 1.039 0 0 1 1.664 0l4 6a1.006 1.006 0 0 1 .168.555z"/>
        </g>
        <g class="light-lines">
                <g class="right-side">
                    <path d="m50.385 7.615a1 1 0 0 1 -.707-1.707l2.122-2.121a1 1 0 1 1 1.413 1.413l-2.121 2.122a1 1 0 0 1 -.707.293z"/>
                    <path d="m54.518 13a1 1 0 0 1 -.5-1.866l2.6-1.5a1 1 0 0 1 1 1.732l-2.6 1.5a1 1 0 0 1 -.5.134z"/>
                    <path d="m57.114 19.271a1 1 0 0 1 -.259-1.966l2.9-.777a1 1 0 1 1 .518 1.932l-2.9.776a.967.967 0 0 1 -.259.035z"/>
                    <path d="m61 26h-3a1 1 0 0 1 0-2h3a1 1 0 0 1 0 2z"/>
                    <path d="m60.012 33.506a1.013 1.013 0 0 1 -.259-.034l-2.9-.777a1 1 0 1 1 .518-1.931l2.9.776a1 1 0 0 1 -.259 1.966z"/>
                    <path d="m57.114 40.5a.992.992 0 0 1 -.5-.134l-2.6-1.5a1 1 0 1 1 1-1.732l2.6 1.5a1 1 0 0 1 -.5 1.866z"/>
                    <path d="m52.506 46.506a1 1 0 0 1 -.707-.293l-2.121-2.121a1 1 0 0 1 1.414-1.414l2.121 2.122a1 1 0 0 1 -.707 1.707z"/>
                </g>
                <g class="left-side">
                    <path d="m13.615 7.615a1 1 0 0 1 -.707-.293l-2.121-2.122a1 1 0 1 1 1.413-1.413l2.121 2.121a1 1 0 0 1 -.707 1.707z"/>
                    <path d="m9.482 13a1 1 0 0 1 -.5-.134l-2.6-1.5a1 1 0 0 1 1-1.732l2.6 1.5a1 1 0 0 1 -.5 1.866z"/>
                    <path d="m6.886 19.271a.972.972 0 0 1 -.259-.035l-2.9-.776a1 1 0 1 1 .518-1.932l2.9.777a1 1 0 0 1 -.259 1.966z"/>
                    <path d="m6 26h-3a1 1 0 0 1 0-2h3a1 1 0 0 1 0 2z"/>
                    <path d="m3.988 33.506a1 1 0 0 1 -.259-1.966l2.9-.776a1 1 0 1 1 .516 1.936l-2.9.777a1.007 1.007 0 0 1 -.257.029z"/>
                    <path d="m6.886 40.5a1 1 0 0 1 -.5-1.866l2.6-1.5a1 1 0 1 1 1 1.732l-2.6 1.5a.992.992 0 0 1 -.5.134z"/>
                    <path d="m11.494 46.506a1 1 0 0 1 -.707-1.707l2.121-2.121a1 1 0 0 1 1.414 1.414l-2.122 2.121a1 1 0 0 1 -.706.293z"/>
                </g>
            </g>
    </g>
</svg>

