<?xml version="1.0"?>
<svg xmlns="http://www.w3.org/2000/svg" viewBox="0 0 64 64" width="512" height="512"><g id="Message"><path d="M50,51H48a3,3,0,0,0-3,3v.736a6.961,6.961,0,0,0,8,0V54A3,3,0,0,0,50,51Z"/><circle cx="49" cy="46" r="1"/><path d="M60,43a5.006,5.006,0,0,0-5-5H17a5.006,5.006,0,0,0-5,5V55a5.006,5.006,0,0,0,5,5H55a5.006,5.006,0,0,0,5-5ZM35,54H17a1,1,0,0,1,0-2H35a1,1,0,0,1,0,2Zm0-4H17a1,1,0,0,1,0-2H35a1,1,0,0,1,0,2Zm0-4H17a1,1,0,0,1,0-2H35a1,1,0,0,1,0,2ZM49,58a9,9,0,1,1,9-9A9.011,9.011,0,0,1,49,58Z"/><path d="M49,42a6.992,6.992,0,0,0-5.849,10.835A5,5,0,0,1,48,49h1a3,3,0,1,1,3-3,3,3,0,0,1-3,3h1a5,5,0,0,1,4.849,3.835A6.992,6.992,0,0,0,49,42Z"/><path d="M17,10a6.992,6.992,0,0,0-5.849,10.835A5,5,0,0,1,16,17h1a3,3,0,1,1,3-3,3,3,0,0,1-3,3h1a5,5,0,0,1,4.849,3.835A6.992,6.992,0,0,0,17,10Z"/><path d="M18,19H16a3,3,0,0,0-3,3v.736a6.961,6.961,0,0,0,8,0V22A3,3,0,0,0,18,19Z"/><circle cx="17" cy="14" r="1"/><path d="M60,9a5.006,5.006,0,0,0-5-5H9A5.006,5.006,0,0,0,4,9V40.586L14.293,30.293A1,1,0,0,1,15,30H55a5.006,5.006,0,0,0,5-5ZM17,26a9,9,0,1,1,9-9A9.011,9.011,0,0,1,17,26Zm38-4H31a1,1,0,0,1,0-2H55a1,1,0,0,1,0,2Zm0-4H31a1,1,0,0,1,0-2H55a1,1,0,0,1,0,2Zm0-4H31a1,1,0,0,1,0-2H55a1,1,0,0,1,0,2Z"/></g></svg>
